<svg viewBox="0 0 128 128" xmlns="http://www.w3.org/2000/svg" xml:space="preserve" style="fill-rule:evenodd;clip-rule:evenodd;stroke-linejoin:round;stroke-miterlimit:2">
    <path d="M15.244 67.581H8.275a.995.995 0 0 1-.996-.995v-1.195c0-.55.446-.995.996-.995h6.969V54.241c0-.55.446-.996.996-.996h.557c.55 0 .996.446.996.996v10.155h1.633V51.254c0-.55.445-.996.995-.996h.876c.55 0 .996.446.996.996v13.142h1.92V47.471c0-.55.446-.996.996-.996h.987c.55 0 .995.446.995.996v16.925h21.25a15.987 15.987 0 0 0-.438 3.185H27.191v16.527c0 .55-.445.996-.995.996h-.987a.996.996 0 0 1-.996-.996V67.581h-1.92v12.744c0 .55-.446.996-.996.996h-.876a.995.995 0 0 1-.995-.996V67.581h-1.633v9.757c0 .55-.446.996-.996.996h-.557a.996.996 0 0 1-.996-.996v-9.757Zm85.828 0H79.997a15.987 15.987 0 0 0-.438-3.185h21.513V47.471c0-.55.446-.996.996-.996h.987c.55 0 .995.446.995.996v16.925h1.657V51.254c0-.55.446-.996.996-.996h.876c.55 0 .995.446.995.996v13.142h1.633V54.241c0-.55.446-.996.996-.996h.557c.55 0 .996.446.996.996v10.155h6.969c.55 0 .996.445.996.995v1.195c0 .55-.446.995-.996.995h-6.969v9.757c0 .55-.446.996-.996.996h-.557a.996.996 0 0 1-.996-.996v-9.757h-1.633v12.744c0 .55-.445.996-.995.996h-.876a.996.996 0 0 1-.996-.996V67.581h-1.657v16.527c0 .55-.445.996-.995.996h-.987a.996.996 0 0 1-.996-.996V67.581Zm-44.95-13.445a16.036 16.036 0 0 0-2.853 2.048l-2.853-6.941a.177.177 0 0 0-.052-.067l-3.823-2.625a.142.142 0 0 1-.015-.22l2.313-2.166a.145.145 0 0 1 .18-.011l4.195 2.883a.135.135 0 0 1 .051.062l2.857 7.037Zm-5.905 5.743-1.478 3.199-7.665-6.736a.139.139 0 0 0-.188.004l-4.5 4.188c-.106.099-.276-.004-.235-.144l1.724-5.875a.126.126 0 0 1 .041-.063l2.867-2.735a.142.142 0 0 1 .192-.004l9.242 8.166ZM38.173 85.626a.137.137 0 0 1-.037.14l-2.537 2.427a.142.142 0 0 1-.235-.063l-2.471-8.353a.146.146 0 0 1 .052-.158l14.989-10.648c.059 1.28.273 2.523.622 3.706l-11.611 8.335a.15.15 0 0 0-.055.155l1.283 4.459Zm6.247 21.067c.044.148-.147.25-.247.129l-5.143-6.364a.21.21 0 0 1-.026-.052l-1.603-5.434a.145.145 0 0 1 .026-.128L51.118 77.81a16.086 16.086 0 0 0 2.342 2.522L41.21 95.678a.141.141 0 0 0-.026.133l3.236 10.882Zm16.658-13.485-5.746-5.151c-.048-.041-.059-.103-.037-.162l2.118-5.03c1.015.46 2.084.816 3.198 1.055l-1.349 3.431a.13.13 0 0 0-.004.099l2.048 5.603c.052.14-.117.254-.228.155Zm6.556-40.741a16.005 16.005 0 0 0-3.607-.408c-1.239 0-2.449.14-3.607.408-.47-1.206-1.077-3.449-.776-6.519.471-4.757 3.633-5.515 4.376-5.515.672 0 3.919.758 4.389 5.515.302 3.07-.305 5.313-.775 6.519Zm13.879-5.916-3.824 2.626a.141.141 0 0 0-.048.066l-2.856 6.941a16.043 16.043 0 0 0-2.854-2.048l2.857-7.037a.144.144 0 0 1 .052-.062l4.198-2.883a.14.14 0 0 1 .177.011l2.316 2.166a.143.143 0 0 1-.018.22Zm10.39 13.839c.04.14-.129.243-.232.144l-4.5-4.188a.14.14 0 0 0-.191-.004l-7.666 6.736a15.786 15.786 0 0 0-1.478-3.199l9.243-8.166a.142.142 0 0 1 .191.004l2.872 2.735a.12.12 0 0 1 .036.063l1.725 5.875Zm3.261 19.387L92.69 88.13a.143.143 0 0 1-.236.063l-2.533-2.427c-.04-.033-.055-.088-.04-.14l1.283-4.46a.144.144 0 0 0-.055-.154l-11.607-8.335c.345-1.183.559-2.426.617-3.706l14.99 10.648c.048.037.07.099.055.158Zm-4.511 15.195-1.603 5.434a.141.141 0 0 1-.026.052l-5.144 6.364c-.095.122-.29.018-.246-.129l3.239-10.882a.155.155 0 0 0-.025-.133L74.597 80.329c.864-.754 1.651-1.6 2.338-2.519l13.692 17.034c.03.037.041.084.026.128Zm-17.927-6.915-5.75 5.151c-.111.099-.28-.015-.228-.155l2.047-5.603a.135.135 0 0 0-.003-.099l-1.35-3.43a15.81 15.81 0 0 0 3.199-1.056l2.118 5.03a.14.14 0 0 1-.033.162Zm4.239-19.884c0 7.133-5.805 12.939-12.938 12.939-7.133 0-12.934-5.806-12.934-12.939 0-7.132 5.801-12.934 12.934-12.934 7.133 0 12.938 5.802 12.938 12.934Zm33.798 14.508.432-1.41 2.82.865-.433 1.409c-2.931 9.556-8.55 17.937-15.975 24.259l-1.123.955-1.912-2.245 1.123-.956c7.003-5.962 12.303-13.865 15.068-22.877ZM19.439 48.275l-.605 1.345-2.689-1.212.605-1.344C24.867 29.044 42.982 16.5 64.028 16.5c21.045 0 39.161 12.544 47.277 30.564l.606 1.344-2.689 1.212-.606-1.345c-7.655-16.994-24.74-28.826-44.588-28.826-19.849 0-36.934 11.832-44.589 28.826Zm12.6 57.007 1.114.966-1.931 2.228-1.114-.965c-7.257-6.287-12.749-14.557-15.635-23.966l-.433-1.409 2.82-.865.432 1.41c2.722 8.873 7.903 16.672 14.747 22.601Z"/>
</svg>
