<svg viewBox="0 0 431 387" xmlns="http://www.w3.org/2000/svg" xml:space="preserve" style="fill-rule:evenodd;clip-rule:evenodd;stroke-linejoin:round;stroke-miterlimit:2">
    <path d="M105.348 51.851 94.61 49.247C130.082 17.416 175.428 0 223.457 0c51.602 0 100.116 20.095 136.603 56.583a195.412 195.412 0 0 1 21.911 26.098c-2.921 1.075-5.674 2.472-8.195 4.004a186.338 186.338 0 0 0-20.08-23.738C318.908 28.159 272.654 9 223.457 9c-43.681 0-85.033 15.115-118.109 42.851Zm301.856 154.066 8.945 1.163c-3.274 46.369-22.895 89.515-56.089 122.709-36.487 36.488-85.001 56.583-136.603 56.583-51.602 0-100.115-20.095-136.603-56.583-34.206-34.206-54.005-78.979-56.348-126.958l9.09 1.212c2.606 45.114 21.405 87.165 53.622 119.382 34.788 34.788 81.042 53.947 130.239 53.947s95.451-19.159 130.239-53.947c31.77-31.77 50.496-73.104 53.508-117.508Zm8.67-140.048 14.526 2.943c-3.521 37.446-11.087 87.923-17.255 115.128l-14.516-1.696c.137-.554.282-1.142.434-1.751.597-2.403 1.275-5.124 1.773-7.49l.153-.726-.479.566c-6.7 7.914-15.195 12.638-22.726 12.638-7.085 0-13.224-3.117-17.286-8.777-4.533-6.321-5.464-15.474-2.844-27.984l.155-.741-.483.584c-12.861 15.529-19.592 27.389-22.828 33.09-.544.96-.982 1.73-1.321 2.291l-9.253-1.081-.016-.102-5.824-.585c6.256-24.817 10.48-46.062 12.909-64.931l14.347 2.963c-1.556 10.786-4.021 21.962-7.534 34.159l-.369 1.282.708-1.13c9.594-15.315 22.734-36.29 44.335-49.544.104-.067.21-.131.315-.196l.339-.208.01-.007.001.003.249-.149c4.557-2.718 9.278-4.096 14.034-4.096 8.41 0 13.081 4.78 13.218 8.231l.374.015c1.292-10.389 3.644-30.273 4.854-42.699Zm-9.151 72.456c1.857-8.667.668-17.603-2.891-21.731-1.531-1.774-3.397-2.607-5.517-2.47-9.035.573-21.895 14.25-25.904 32.963-2.572 12.004-.104 19.906 2.792 23.024 1.283 1.382 2.773 2.044 4.629 2.044.337 0 .687-.022 1.048-.065 9.034-1.083 21.868-15.216 25.843-33.765ZM243.83 310.558a748.898 748.898 0 0 0 3.955-21.607l.166-.98-.512.852c-7.398 12.336-16.439 19.352-22.617 23.56l-14.811-1.73a731.022 731.022 0 0 0 1.766-7.95l.16-.737-.486.576c-6.093 7.226-14.208 11.37-22.267 11.37-1.541 0-3.087-.159-4.595-.47l-.269-.054a14.198 14.198 0 0 1-.434-.099c-1.632-.369-3.227-.738-4.789-1.099-21.067-4.874-36.299-8.395-60.612 5.308l-13.689-6.989c6.026-14.125 11.081-28.565 15.454-44.139 6.34-22.584 10.924-46.596 14.008-73.404l14.274 3.892c-3.172 26.698-7.818 50.731-14.201 73.465a390.846 390.846 0 0 1-8.713 27.188l-.135.378.377-.139c17.148-6.272 31.836-4.554 43.943-2.045l.407.084-.206-.36c-2.521-4.431-4.061-14.166-.108-27.024 8.27-24.458 23.095-39.651 38.688-39.651 5.291 0 10.522 2.099 14.729 5.911l.265.239.194-1.437c.177-1.301.353-2.602.523-3.911l14.302 2.954c-2.637 20.063-5.824 39.614-9.471 58.113l-.109.553.418-.376c14.587-13.133 22.795-29.632 25.097-50.442l.427-3.957a1043.129 1043.129 0 0 0 3.634-42.094l14.451 2.984a1047.3 1047.3 0 0 1-4.377 48.103l-.086.742.425-.614c8.018-11.578 19.097-16.761 26.52-16.761 7.086 0 13.224 3.117 17.286 8.777 6.286 8.763 6.96 20.642 2.002 35.305-8.123 24.022-24.954 40.798-40.931 40.798-4.944 0-11.234-3.062-13.689-8.915l-.215-.566-.153.629c-.522 2.802-.99 5.248-1.427 7.47l-14.569-1.701Zm24.372-35.787c-.066.19-6.55 19.043 1.547 23.503.85.468 1.858.71 2.916.71.373 0 .752-.03 1.132-.09 4.549-.726 9.963-4.2 14.852-9.529 5.25-5.724 9.622-13.256 12.311-21.206 3.393-10.036 3.626-16.828.732-21.376-1.513-2.379-4.679-3.624-7.023-3.624-12.468 0-21.274 17.19-26.467 31.612Zm-49.475-6.914c3.327-11.819 1.363-19.86-1.33-23.155-1.409-1.725-3.179-2.457-5.541-2.334-9.083.51-22.786 13.803-27.926 32.065-3.325 11.818-1.362 19.859 1.331 23.155 1.302 1.594 2.906 2.348 5.013 2.348.172 0 .348-.004.528-.014 9.084-.512 22.787-13.805 27.925-32.065Zm-22.451-85.731a755.005 755.005 0 0 0 4.137-22.703l.003-.071-.002-.005c.16-1.3.369-2.54.641-3.795 4.55-28.106 7.909-58.275 9.984-89.677l14.45 2.985a1040.96 1040.96 0 0 1-4.625 50.241l-.113.965.464-.854c6.663-12.264 18.759-18.882 26.757-18.882 7.086 0 13.224 3.118 17.286 8.778 6.285 8.762 6.96 20.64 2.001 35.304-3.664 10.837-10.254 19.633-19.058 25.438l-1.296.855 1.463-.522c9.099-3.246 16.819-7.635 21.738-12.355 10.921-10.481 21.693-23.484 23.045-56.603l14.471 2.988a135.1 135.1 0 0 1-.802 8.293c-.17 1.654-.342 3.282-.515 4.887l-.082.773.426-.65c7.767-11.826 16.914-19.849 27.186-23.847l.106-.042.012-.112c.383-3.405.743-6.744 1.07-9.93l14.393 2.972c-.434 4.135-1.406 12.373-1.991 17.323l-.213 1.799c-9.506 1.241-19.414 7.233-27.918 16.887-9.382 10.653-16.04 24.585-19.253 40.297a839.177 839.177 0 0 1-3.912 21.096l-.988.001-13.599-1.59c1.722-8.548 3.056-15.525 4.195-21.943l.124-.696-.452.543c-13.622 16.343-34.313 24.648-61.495 24.687v-14.355c9.108-.172 23.379-12.805 29.491-30.879 3.393-10.036 3.627-16.829.732-21.375-1.513-2.379-4.678-3.624-7.023-3.624-6.509 0-12.659 4.661-18.281 13.851-7.074 11.567-13.126 30.155-17.989 55.249l-14.568-1.702Zm-110.477.106c3.049-15.315 5.748-31.594 8.024-48.389l.025-.192-.193-.02c-9.333-.918-24.235-1.371-42.228 1.688l-.135.022-.019.137c-2.269 16.799-4.954 33.102-7.983 48.46l-14.569-1.702c2.728-13.698 5.188-28.263 7.314-43.295l.04-.28-.274.073a176 176 0 0 0-29.54 10.852L0 136.369c12.266-5.796 25.054-10.278 38.012-13.323l.127-.03.016-.129c2.269-18.422 4.068-37.602 5.352-57.012l14.449 2.985c-1.176 17.311-2.763 34.479-4.715 51.03l-.029.243.242-.036c17.965-2.629 32.788-2.018 42.062-1.041l.183.018.022-.183c2.032-17.112 3.668-34.948 4.862-53.016l14.46 2.986-.81 68.851-6.235-1.607-.034.203c-1.842 11.118-3.942 21.435-6.24 30.663l-.145.586.451-.4c16.265-14.367 26.777-36.578 31.244-66.018l15.331 3.015-.008.196c-.521 12.871-1.493 36.83-5.638 60.96l-.069.399.349-.205c18.487-10.895 31.05-32.551 37.342-64.369l14.233 3.09c.054 21.935-2.46 45.068-7.471 68.767-4.274 20.203-10.261 40.143-17.319 57.673l-14.236-1.578c10.302-22.725 18.339-51.516 23.892-85.583l.258-1.582-.617 1.481c-9.606 23.086-28.882 35.3-39.555 40.538l-13.917-2.191c2.925-11.74 5.785-28.245 6.814-39.34l.129-1.391-.491 1.308c-6.741 17.939-15.667 29.591-31.823 41.539-.834-.075-9.754-1.078-14.679-1.634Z" style="fill:#fff"/>
</svg>
