<?xml version="1.0" encoding="UTF-8" standalone="no"?>
<!DOCTYPE svg PUBLIC "-//W3C//DTD SVG 1.1//EN" "http://www.w3.org/Graphics/SVG/1.1/DTD/svg11.dtd">
<svg width="100%" height="100%" viewBox="0 0 275 55" version="1.1" xmlns="http://www.w3.org/2000/svg" xmlns:xlink="http://www.w3.org/1999/xlink" xml:space="preserve" xmlns:serif="http://www.serif.com/" style="fill-rule:evenodd;clip-rule:evenodd;stroke-linejoin:round;stroke-miterlimit:2;">
    <g id="Logo">
        <path d="M0.937,1.034L13.488,1.034L13.488,41.503L35.771,41.503L35.771,52.26L0.937,52.26L0.937,1.034ZM40.974,1.033L53.525,1.033L53.525,52.26L40.974,52.26L40.974,1.033ZM57.617,1.034L70.68,1.034L81.011,25.708L91.341,1.034L104.404,1.034L81.779,53.967L80.242,53.967L57.617,1.034ZM109.041,1.033L121.592,1.033L121.592,52.26L109.041,52.26L109.041,1.033ZM127.296,1.034L145.141,1.034C160.254,1.034 171.95,12.132 171.95,26.561C171.95,40.222 161.533,52.26 145.141,52.26L127.296,52.26L127.296,1.034ZM144.885,40.819C152.91,40.819 159.058,35.184 159.058,26.561C159.058,18.62 153.679,12.388 144.885,12.388L139.848,12.388L139.848,40.819L144.885,40.819ZM177.996,1.033L190.462,1.033L190.462,33.135C190.462,39.966 193.705,42.356 198.061,42.356C202.841,42.356 205.829,39.966 205.829,33.135L205.829,1.033L218.38,1.033L218.38,35.013C218.38,47.137 209.33,53.967 198.061,53.967C186.363,53.967 177.996,46.796 177.996,35.013L177.996,1.033ZM224.629,1.034L236.326,1.034L249.389,28.696L262.537,1.034L274.063,1.034L274.063,52.26L261.597,52.26L261.597,29.464L250.413,53.967L248.364,53.967L237.179,29.293L237.179,52.26L224.629,52.26L224.629,1.034Z" style="fill:white;"/>
    </g>
</svg>
