<?xml version="1.0" encoding="UTF-8" standalone="no"?>
<!DOCTYPE svg PUBLIC "-//W3C//DTD SVG 1.1//EN" "http://www.w3.org/Graphics/SVG/1.1/DTD/svg11.dtd">
<svg width="100%" height="100%" viewBox="0 0 300 94" version="1.1" xmlns="http://www.w3.org/2000/svg" xmlns:xlink="http://www.w3.org/1999/xlink" xml:space="preserve" xmlns:serif="http://www.serif.com/" style="fill-rule:evenodd;clip-rule:evenodd;stroke-linejoin:round;stroke-miterlimit:2;">
    <g transform="matrix(0.645748,0,0,1.435,-48.5256,-18.3192)">
        <g id="Logo">
            <g transform="matrix(0.570885,0,0,0.256898,71.6236,11.7266)">
                <path d="M141.991,108.499C139.209,110.065 136.616,111.93 134.253,114.055L126.513,95.225C126.483,95.155 126.433,95.096 126.373,95.045L116.001,87.924C115.802,87.785 115.782,87.496 115.962,87.326L122.235,81.452C122.374,81.332 122.574,81.313 122.723,81.422L134.103,89.241C134.162,89.281 134.213,89.341 134.242,89.411L141.991,108.499Z" style="fill:white;fill-rule:nonzero;"/>
            </g>
            <g transform="matrix(0.570885,0,0,0.256898,71.6236,11.7266)">
                <path d="M125.974,124.078L121.965,132.754L101.171,114.483C101.031,114.354 100.802,114.354 100.662,114.493L88.455,125.853C88.166,126.122 87.707,125.843 87.817,125.464L92.495,109.527C92.515,109.457 92.554,109.397 92.604,109.357L100.383,101.937C100.532,101.797 100.752,101.797 100.902,101.927L125.974,124.078Z" style="fill:white;fill-rule:nonzero;"/>
            </g>
            <g transform="matrix(0.570885,0,0,0.256898,71.6236,11.7266)">
                <path d="M93.302,193.92C93.342,194.06 93.302,194.209 93.202,194.299L86.321,200.882C86.111,201.081 85.762,200.991 85.683,200.712L78.981,178.053C78.931,177.893 78.991,177.724 79.12,177.624L119.781,148.741C119.94,152.212 120.52,155.583 121.467,158.794L89.971,181.404C89.841,181.503 89.781,181.673 89.822,181.823L93.302,193.92Z" style="fill:white;fill-rule:nonzero;"/>
            </g>
            <g transform="matrix(0.570885,0,0,0.256898,71.6236,11.7266)">
                <path d="M110.247,251.066C110.367,251.466 109.848,251.744 109.579,251.415L95.626,234.152C95.596,234.112 95.576,234.062 95.557,234.012L91.208,219.272C91.178,219.153 91.198,219.022 91.278,218.923L128.418,172.717C130.283,175.22 132.417,177.514 134.771,179.559L101.54,221.187C101.46,221.287 101.43,221.416 101.47,221.546L110.247,251.066Z" style="fill:white;fill-rule:nonzero;"/>
            </g>
            <g transform="matrix(0.570885,0,0,0.256898,71.6236,11.7266)">
                <path d="M155.436,214.485L139.847,200.512C139.717,200.403 139.688,200.233 139.748,200.073L145.492,186.43C148.245,187.677 151.147,188.644 154.168,189.292L150.509,198.597C150.469,198.677 150.469,198.777 150.498,198.866L156.054,214.066C156.193,214.445 155.735,214.754 155.436,214.485" style="fill:white;fill-rule:nonzero;"/>
            </g>
            <g transform="matrix(0.570885,0,0,0.256898,71.6236,11.7266)">
                <path d="M173.218,103.972C170.076,103.244 166.794,102.864 163.434,102.864C160.073,102.864 156.792,103.244 153.65,103.972C152.374,100.7 150.728,94.617 151.546,86.289C152.822,73.384 161.399,71.329 163.414,71.329C165.239,71.329 174.045,73.384 175.322,86.289C176.14,94.617 174.494,100.7 173.218,103.972" style="fill:white;fill-rule:nonzero;"/>
            </g>
            <g transform="matrix(0.570885,0,0,0.256898,71.6236,11.7266)">
                <path d="M210.867,87.925L200.494,95.046C200.435,95.095 200.385,95.155 200.365,95.225L192.616,114.054C190.252,111.93 187.659,110.065 184.876,108.5L192.626,89.41C192.655,89.341 192.705,89.281 192.765,89.241L204.154,81.422C204.304,81.312 204.504,81.332 204.633,81.452L210.916,87.327C211.096,87.496 211.066,87.785 210.867,87.925" style="fill:white;fill-rule:nonzero;"/>
            </g>
            <g transform="matrix(0.570885,0,0,0.256898,71.6236,11.7266)">
                <path d="M239.051,125.464C239.16,125.843 238.702,126.122 238.422,125.853L226.215,114.493C226.065,114.353 225.846,114.353 225.697,114.483L204.902,132.754C203.885,129.703 202.539,126.79 200.893,124.078L225.966,101.927C226.116,101.798 226.345,101.798 226.484,101.937L234.273,109.357C234.323,109.397 234.353,109.457 234.373,109.527L239.051,125.464Z" style="fill:white;fill-rule:nonzero;"/>
            </g>
            <g transform="matrix(0.570885,0,0,0.256898,71.6236,11.7266)">
                <path d="M247.897,178.053L241.185,200.712C241.105,200.991 240.756,201.081 240.547,200.882L233.675,194.299C233.566,194.209 233.526,194.06 233.566,193.92L237.046,181.822C237.086,181.673 237.037,181.503 236.897,181.404L205.411,158.794C206.349,155.583 206.927,152.212 207.087,148.741L247.748,177.624C247.877,177.724 247.937,177.893 247.897,178.053" style="fill:white;fill-rule:nonzero;"/>
            </g>
            <g transform="matrix(0.570885,0,0,0.256898,71.6236,11.7266)">
                <path d="M235.66,219.272L231.312,234.012C231.302,234.062 231.272,234.112 231.241,234.152L217.289,251.416C217.03,251.745 216.501,251.465 216.621,251.066L225.407,221.546C225.437,221.416 225.417,221.286 225.338,221.187L192.106,179.549C194.451,177.504 196.585,175.21 198.45,172.717L235.59,218.923C235.67,219.023 235.7,219.152 235.66,219.272" style="fill:white;fill-rule:nonzero;"/>
            </g>
            <g transform="matrix(0.570885,0,0,0.256898,71.6236,11.7266)">
                <path d="M187.03,200.512L171.433,214.485C171.133,214.754 170.675,214.445 170.814,214.066L176.369,198.867C176.399,198.777 176.399,198.677 176.359,198.597L172.699,189.293C175.721,188.644 178.623,187.677 181.376,186.43L187.12,200.074C187.19,200.233 187.15,200.402 187.03,200.512" style="fill:white;fill-rule:nonzero;"/>
            </g>
            <g transform="matrix(0.570885,0,0,0.256898,71.6236,11.7266)">
                <path d="M198.53,146.577C198.53,165.925 182.782,181.673 163.434,181.673C144.086,181.673 128.348,165.925 128.348,146.577C128.348,127.229 144.086,111.492 163.434,111.492C182.782,111.492 198.53,127.229 198.53,146.577" style="fill:white;fill-rule:nonzero;"/>
            </g>
            <g transform="matrix(0.570885,0,0,0.256898,71.6236,11.7266)">
                <path d="M290.211,185.929L291.384,182.105L299.032,184.451L297.859,188.275C289.907,214.196 274.666,236.929 254.523,254.078L251.477,256.671L246.291,250.579L249.337,247.986C268.334,231.813 282.711,210.376 290.211,185.929Z" style="fill:white;"/>
            </g>
            <g transform="matrix(0.570885,0,0,0.256898,71.6236,11.7266)">
                <path d="M42.485,92.601L40.842,96.248L33.548,92.962L35.191,89.315C57.208,40.435 106.348,6.407 163.436,6.407C220.524,6.407 269.665,40.435 291.681,89.315L293.324,92.962L286.03,96.248L284.387,92.601C263.623,46.501 217.278,14.407 163.436,14.407C109.594,14.407 63.25,46.501 42.485,92.601Z" style="fill:white;"/>
            </g>
            <g transform="matrix(0.570885,0,0,0.256898,71.6236,11.7266)">
                <path d="M76.663,247.238L79.686,249.857L74.448,255.903L71.425,253.284C51.74,236.23 36.843,213.798 29.013,188.275L27.84,184.451L35.488,182.105L36.661,185.929C44.045,210 58.098,231.154 76.663,247.238Z" style="fill:white;"/>
            </g>
            <g transform="matrix(0.570885,0,0,0.256898,71.6236,11.7266)">
                <path d="M35.318,174.138L33.806,174.138C32.314,174.138 31.105,172.929 31.105,171.437L31.105,108.783C31.105,107.291 32.314,106.082 33.806,106.082L35.318,106.082C36.81,106.082 38.019,107.291 38.019,108.783L38.019,171.437C38.019,172.929 36.81,174.138 35.318,174.138" style="fill:white;fill-rule:nonzero;"/>
            </g>
            <g transform="matrix(0.570885,0,0,0.256898,71.6236,11.7266)">
                <path d="M47.525,182.24L45.149,182.24C43.657,182.24 42.448,181.031 42.448,179.539L42.448,100.681C42.448,99.19 43.657,97.98 45.149,97.98L47.525,97.98C49.017,97.98 50.226,99.19 50.226,100.681L50.226,179.539C50.226,181.031 49.017,182.24 47.525,182.24" style="fill:white;fill-rule:nonzero;"/>
            </g>
            <g transform="matrix(0.570885,0,0,0.256898,71.6236,11.7266)">
                <path d="M60.812,192.502L58.135,192.502C56.643,192.502 55.434,191.293 55.434,189.802L55.434,90.418C55.434,88.927 56.643,87.718 58.135,87.718L60.812,87.718C62.304,87.718 63.513,88.927 63.513,90.418L63.513,189.802C63.513,191.293 62.304,192.502 60.812,192.502" style="fill:white;fill-rule:nonzero;"/>
            </g>
            <g transform="matrix(0.570885,0,0,0.256898,71.6236,11.7266)">
                <path d="M121.156,136.329L12.201,136.329C10.709,136.329 9.5,137.538 9.5,139.03L9.5,142.271C9.5,143.762 10.709,144.971 12.201,144.971L119.967,144.971C120.075,142.005 120.48,139.116 121.156,136.329" style="fill:white;fill-rule:nonzero;"/>
            </g>
            <g transform="matrix(0.570885,0,0,0.256898,71.6236,11.7266)">
                <path d="M291.404,174.138L292.916,174.138C294.408,174.138 295.617,172.929 295.617,171.437L295.617,108.783C295.617,107.291 294.408,106.082 292.916,106.082L291.404,106.082C289.912,106.082 288.703,107.291 288.703,108.783L288.703,171.437C288.703,172.929 289.912,174.138 291.404,174.138" style="fill:white;fill-rule:nonzero;"/>
            </g>
            <g transform="matrix(0.570885,0,0,0.256898,71.6236,11.7266)">
                <path d="M279.197,182.24L281.573,182.24C283.065,182.24 284.274,181.031 284.274,179.539L284.274,100.681C284.274,99.19 283.065,97.98 281.573,97.98L279.197,97.98C277.705,97.98 276.496,99.19 276.496,100.681L276.496,179.539C276.496,181.031 277.705,182.24 279.197,182.24" style="fill:white;fill-rule:nonzero;"/>
            </g>
            <g transform="matrix(0.570885,0,0,0.256898,71.6236,11.7266)">
                <path d="M266.624,192.502L269.301,192.502C270.793,192.502 272.002,191.293 272.002,189.802L272.002,90.418C272.002,88.927 270.793,87.718 269.301,87.718L266.624,87.718C265.132,87.718 263.923,88.927 263.923,90.418L263.923,189.802C263.923,191.293 265.132,192.502 266.624,192.502" style="fill:white;fill-rule:nonzero;"/>
            </g>
            <g transform="matrix(0.570885,0,0,0.256898,71.6236,11.7266)">
                <path d="M205.566,136.329L314.521,136.329C316.013,136.329 317.222,137.538 317.222,139.03L317.222,142.271C317.222,143.762 316.013,144.971 314.521,144.971L206.755,144.971C206.647,142.005 206.242,139.116 205.566,136.329" style="fill:white;fill-rule:nonzero;"/>
            </g>
            <g transform="matrix(0.570885,0,0,0.256898,71.6236,11.7266)">
                <path d="M381.978,140.428L381.978,73.733L371.706,73.733L371.706,150.278L381.978,140.428ZM366.5,69.794L387.185,69.794L387.185,136.489L423.909,136.489L423.909,154.218L366.5,154.218L366.5,69.794Z" style="fill:white;fill-rule:nonzero;"/>
            </g>
            <g transform="matrix(0.570885,0,0,0.256898,71.6236,11.7266)">
                <path d="M447.96,120.166L437.689,120.166L437.689,150.278L447.96,150.278L447.96,120.166ZM432.483,69.793L453.167,69.793L453.167,154.217L432.483,154.217L432.483,69.793Z" style="fill:white;fill-rule:nonzero;"/>
            </g>
            <g transform="matrix(0.570885,0,0,0.256898,71.6236,11.7266)">
                <path d="M530.124,73.733L519.29,73.733L501.42,116.368L506.767,128.468L530.124,73.733ZM459.911,69.794L481.44,69.794L498.466,110.458L515.491,69.794L537.019,69.794L499.732,157.031L497.198,157.031L459.911,69.794Z" style="fill:white;fill-rule:nonzero;"/>
            </g>
            <g transform="matrix(0.570885,0,0,0.256898,71.6236,11.7266)">
                <path d="M560.139,120.166L549.867,120.166L549.867,150.278L560.139,150.278L560.139,120.166ZM544.661,69.793L565.345,69.793L565.345,154.217L544.661,154.217L544.661,69.793Z" style="fill:white;fill-rule:nonzero;"/>
            </g>
            <g transform="matrix(0.570885,0,0,0.256898,71.6236,11.7266)">
                <path d="M603.734,135.363C616.96,135.363 627.091,126.076 627.091,111.865C627.091,98.778 618.227,88.506 603.734,88.506L595.432,88.506L595.432,135.363L603.734,135.363ZM590.225,73.733L579.953,73.733L579.953,150.278L590.225,150.278L590.225,73.733ZM574.747,69.794L604.156,69.794C629.062,69.794 648.338,88.085 648.338,111.865C648.338,134.378 631.171,154.217 604.156,154.217L574.747,154.217L574.747,69.794Z" style="fill:white;fill-rule:nonzero;"/>
            </g>
            <g transform="matrix(0.570885,0,0,0.256898,71.6236,11.7266)">
                <path d="M719.651,73.733L709.239,73.733L709.239,103.704L719.651,103.704L719.651,73.733ZM673.78,73.733L663.509,73.733L663.509,103.704L673.78,103.704L673.78,73.733ZM658.303,69.793L678.847,69.793L678.847,122.699C678.847,133.956 684.192,137.895 691.37,137.895C699.249,137.895 704.173,133.956 704.173,122.699L704.173,69.793L724.857,69.793L724.857,125.794C724.857,145.775 709.943,157.031 691.37,157.031C672.092,157.031 658.303,145.212 658.303,125.794L658.303,69.793Z" style="fill:white;fill-rule:nonzero;"/>
            </g>
            <g transform="matrix(0.570885,0,0,0.256898,71.6236,11.7266)">
                <path d="M796.082,105.674L796.082,84.285L778.916,121.011L783.559,132.267L796.082,105.674ZM750.634,150.279L750.634,104.125L740.362,81.05L740.362,150.279L750.634,150.279ZM735.156,69.794L754.434,69.794L775.962,115.383L797.63,69.794L816.626,69.794L816.626,154.217L796.082,154.217L796.082,116.649L777.649,157.031L774.273,157.031L755.84,116.367L755.84,154.217L735.156,154.217L735.156,69.794Z" style="fill:white;fill-rule:nonzero;"/>
            </g>
            <g transform="matrix(0.570885,0,0,0.256898,71.6236,11.7266)">
                <path d="M370.261,187.021C370.261,187.941 370.997,188.678 371.891,188.678C372.864,188.678 373.469,188.126 373.469,187.311C373.469,186.128 371.917,185.785 370.629,185.338C367.973,184.392 366.5,183.156 366.5,180.447C366.5,177.66 368.894,175.346 371.865,175.346C375.362,175.346 377.019,177.581 377.23,180.499L373.6,180.499C373.6,179.605 373.048,178.869 371.97,178.869C371.129,178.869 370.314,179.369 370.314,180.394C370.314,181.578 371.759,181.788 373.101,182.182C375.915,183.024 377.23,184.601 377.23,187.073C377.23,189.861 374.862,192.174 371.891,192.174C368.447,192.174 366.5,189.861 366.5,187.021L370.261,187.021Z" style="fill:white;fill-rule:nonzero;"/>
            </g>
            <g transform="matrix(0.570885,0,0,0.256898,71.6236,11.7266)">
                <path d="M383.935,179.291L380.413,179.291L380.413,175.871L391.403,175.871L391.403,179.291L387.827,179.291L387.827,191.649L383.935,191.649L383.935,179.291Z" style="fill:white;fill-rule:nonzero;"/>
            </g>
            <g transform="matrix(0.570885,0,0,0.256898,71.6236,11.7266)">
                <path d="M401.738,182.709C402.606,182.709 403.184,181.815 403.184,180.894C403.184,179.975 402.501,179.159 401.633,179.159L398.635,179.159L398.635,182.709L401.738,182.709ZM394.77,175.872L401.37,175.872C404.762,175.872 406.971,177.923 406.971,180.894C406.971,183.655 405.578,185.206 403.237,185.785L407.496,191.649L402.658,191.649L398.635,185.758L398.635,191.649L394.77,191.649L394.77,175.872Z" style="fill:white;fill-rule:nonzero;"/>
            </g>
            <g transform="matrix(0.570885,0,0,0.256898,71.6236,11.7266)">
                <path d="M410.443,175.872L420.883,175.872L420.883,179.291L414.309,179.291L414.309,182.13L420.382,182.13L420.382,185.496L414.309,185.496L414.309,188.335L421.171,188.335L421.171,191.649L410.443,191.649L410.443,175.872Z" style="fill:white;fill-rule:nonzero;"/>
            </g>
            <g transform="matrix(0.570885,0,0,0.256898,71.6236,11.7266)">
                <path d="M424.617,175.872L428.693,175.872L434.82,185.233L434.82,175.872L438.658,175.872L438.658,191.649L434.635,191.649L428.483,182.262L428.483,191.649L424.617,191.649L424.617,175.872Z" style="fill:white;fill-rule:nonzero;"/>
            </g>
            <g transform="matrix(0.570885,0,0,0.256898,71.6236,11.7266)">
                <path d="M451.229,175.346C454.148,175.346 456.172,176.424 457.828,178.108L455.148,180.58C454.069,179.605 452.727,179.002 451.229,179.002C448.415,179.002 446.601,181.105 446.601,183.76C446.601,186.679 448.678,188.52 451.308,188.52C454.069,188.52 455.41,186.995 455.515,185.469L451.018,185.469L451.018,182.131L459.696,182.131L459.696,183.629C459.696,188.283 456.961,192.175 451.229,192.175C446.233,192.175 442.683,188.467 442.683,183.76C442.683,179.053 446.233,175.346 451.229,175.346" style="fill:white;fill-rule:nonzero;"/>
            </g>
            <g transform="matrix(0.570885,0,0,0.256898,71.6236,11.7266)">
                <path d="M465.272,179.291L461.749,179.291L461.749,175.871L472.74,175.871L472.74,179.291L469.163,179.291L469.163,191.649L465.272,191.649L465.272,179.291Z" style="fill:white;fill-rule:nonzero;"/>
            </g>
            <g transform="matrix(0.570885,0,0,0.256898,71.6236,11.7266)">
                <path d="M476.106,175.872L479.972,175.872L479.972,182.078L486.151,182.078L486.151,175.872L489.991,175.872L489.991,191.649L486.151,191.649L486.151,185.418L479.972,185.418L479.972,191.649L476.106,191.649L476.106,175.872Z" style="fill:white;fill-rule:nonzero;"/>
            </g>
            <g transform="matrix(0.570885,0,0,0.256898,71.6236,11.7266)">
                <rect x="501.247" y="182.315" width="7.1" height="2.998" style="fill:white;"/>
            </g>
            <g transform="matrix(0.570885,0,0,0.256898,71.6236,11.7266)">
                <path d="M527.779,175.346C530.777,175.346 532.854,176.478 534.537,178.239L531.882,180.763C530.777,179.685 529.357,179.002 527.779,179.002C524.966,179.002 523.151,181.105 523.151,183.76C523.151,186.417 524.966,188.52 527.779,188.52C529.357,188.52 530.777,187.836 531.882,186.758L534.458,189.283C532.881,190.939 530.699,192.175 527.779,192.175C522.783,192.175 519.234,188.467 519.234,183.76C519.234,179.053 522.783,175.346 527.779,175.346" style="fill:white;fill-rule:nonzero;"/>
            </g>
            <g transform="matrix(0.570885,0,0,0.256898,71.6236,11.7266)">
                <path d="M545.846,188.52C548.633,188.52 550.422,186.417 550.422,183.76C550.422,181.105 548.633,179.002 545.846,179.002C543.032,179.002 541.27,181.105 541.27,183.76C541.27,186.417 543.032,188.52 545.846,188.52M545.846,175.346C550.815,175.346 554.339,179.053 554.339,183.76C554.339,188.467 550.815,192.175 545.846,192.175C540.85,192.175 537.352,188.467 537.352,183.76C537.352,179.053 540.85,175.346 545.846,175.346" style="fill:white;fill-rule:nonzero;"/>
            </g>
            <g transform="matrix(0.570885,0,0,0.256898,71.6236,11.7266)">
                <path d="M558.6,175.872L562.202,175.872L566.226,184.392L570.276,175.872L573.825,175.872L573.825,191.649L569.987,191.649L569.987,184.628L566.541,192.175L565.91,192.175L562.466,184.575L562.466,191.649L558.6,191.649L558.6,175.872Z" style="fill:white;fill-rule:nonzero;"/>
            </g>
            <g transform="matrix(0.570885,0,0,0.256898,71.6236,11.7266)">
                <path d="M577.928,175.872L581.531,175.872L585.554,184.392L589.604,175.872L593.153,175.872L593.153,191.649L589.314,191.649L589.314,184.628L585.87,192.175L585.238,192.175L581.794,184.575L581.794,191.649L577.928,191.649L577.928,175.872Z" style="fill:white;fill-rule:nonzero;"/>
            </g>
            <g transform="matrix(0.570885,0,0,0.256898,71.6236,11.7266)">
                <path d="M597.257,175.872L601.096,175.872L601.096,185.759C601.096,187.863 602.095,188.599 603.436,188.599C604.909,188.599 605.83,187.863 605.83,185.759L605.83,175.872L609.694,175.872L609.694,186.337C609.694,190.072 606.907,192.175 603.436,192.175C599.834,192.175 597.257,189.966 597.257,186.337L597.257,175.872Z" style="fill:white;fill-rule:nonzero;"/>
            </g>
            <g transform="matrix(0.570885,0,0,0.256898,71.6236,11.7266)">
                <path d="M613.798,175.872L617.873,175.872L624,185.233L624,175.872L627.839,175.872L627.839,191.649L623.816,191.649L617.662,182.262L617.662,191.649L613.798,191.649L613.798,175.872Z" style="fill:white;fill-rule:nonzero;"/>
            </g>
            <g transform="matrix(0.570885,0,0,0.256898,71.6236,11.7266)">
                <rect x="631.942" y="175.872" width="3.865" height="15.778" style="fill:white;"/>
            </g>
            <g transform="matrix(0.570885,0,0,0.256898,71.6236,11.7266)">
                <path d="M642.698,179.291L639.175,179.291L639.175,175.871L650.165,175.871L650.165,179.291L646.59,179.291L646.59,191.649L642.698,191.649L642.698,179.291Z" style="fill:white;fill-rule:nonzero;"/>
            </g>
            <g transform="matrix(0.570885,0,0,0.256898,71.6236,11.7266)">
                <path d="M658.318,184.024L652.718,175.872L657.083,175.872L660.238,180.604L663.419,175.872L667.758,175.872L662.158,184.024L662.158,191.649L658.318,191.649L658.318,184.024Z" style="fill:white;fill-rule:nonzero;"/>
            </g>
            <g transform="matrix(0.570885,0,0,0.256898,71.6236,11.7266)">
                <rect x="677.83" y="182.315" width="7.101" height="2.998" style="fill:white;"/>
            </g>
            <g transform="matrix(0.570885,0,0,0.256898,71.6236,11.7266)">
                <path d="M696.187,175.872L700.051,175.872L700.051,188.335L706.914,188.335L706.914,191.649L696.187,191.649L696.187,175.872Z" style="fill:white;fill-rule:nonzero;"/>
            </g>
            <g transform="matrix(0.570885,0,0,0.256898,71.6236,11.7266)">
                <rect x="710.359" y="175.872" width="3.866" height="15.778" style="fill:white;"/>
            </g>
            <g transform="matrix(0.570885,0,0,0.256898,71.6236,11.7266)">
                <path d="M718.328,175.872L728.504,175.872L728.504,179.291L722.193,179.291L722.193,182.657L728.004,182.657L728.004,186.022L722.193,186.022L722.193,191.649L718.328,191.649L718.328,175.872Z" style="fill:white;fill-rule:nonzero;"/>
            </g>
            <g transform="matrix(0.570885,0,0,0.256898,71.6236,11.7266)">
                <path d="M731.687,175.872L742.127,175.872L742.127,179.291L735.552,179.291L735.552,182.13L741.627,182.13L741.627,185.496L735.552,185.496L735.552,188.335L742.415,188.335L742.415,191.649L731.687,191.649L731.687,175.872Z" style="fill:white;fill-rule:nonzero;"/>
            </g>
            <g transform="matrix(0.570885,0,0,0.256898,71.6236,11.7266)">
                <path d="M749.541,187.021C749.541,187.941 750.278,188.678 751.172,188.678C752.146,188.678 752.75,188.126 752.75,187.311C752.75,186.128 751.198,185.785 749.91,185.338C747.253,184.392 745.781,183.156 745.781,180.447C745.781,177.66 748.174,175.346 751.146,175.346C754.643,175.346 756.299,177.581 756.51,180.499L752.881,180.499C752.881,179.605 752.329,178.869 751.251,178.869C750.41,178.869 749.595,179.369 749.595,180.394C749.595,181.578 751.04,181.788 752.382,182.182C755.195,183.024 756.51,184.601 756.51,187.073C756.51,189.861 754.143,192.174 751.172,192.174C747.728,192.174 745.781,189.861 745.781,187.021L749.541,187.021Z" style="fill:white;fill-rule:nonzero;"/>
            </g>
            <g transform="matrix(0.570885,0,0,0.256898,71.6236,11.7266)">
                <path d="M763.216,179.291L759.693,179.291L759.693,175.871L770.684,175.871L770.684,179.291L767.108,179.291L767.108,191.649L763.216,191.649L763.216,179.291Z" style="fill:white;fill-rule:nonzero;"/>
            </g>
            <g transform="matrix(0.570885,0,0,0.256898,71.6236,11.7266)">
                <path d="M778.837,184.024L773.236,175.872L777.601,175.872L780.756,180.604L783.938,175.872L788.277,175.872L782.676,184.024L782.676,191.649L778.837,191.649L778.837,184.024Z" style="fill:white;fill-rule:nonzero;"/>
            </g>
            <g transform="matrix(0.570885,0,0,0.256898,71.6236,11.7266)">
                <path d="M791.723,175.872L795.588,175.872L795.588,188.335L802.451,188.335L802.451,191.649L791.723,191.649L791.723,175.872Z" style="fill:white;fill-rule:nonzero;"/>
            </g>
            <g transform="matrix(0.570885,0,0,0.256898,71.6236,11.7266)">
                <path d="M805.896,175.872L816.337,175.872L816.337,179.291L809.763,179.291L809.763,182.13L815.837,182.13L815.837,185.496L809.763,185.496L809.763,188.335L816.626,188.335L816.626,191.649L805.896,191.649L805.896,175.872Z" style="fill:white;fill-rule:nonzero;"/>
            </g>
        </g>
    </g>
</svg>
